<svg width="75" height="75" viewBox="0 0 75 75" fill="none" xmlns="http://www.w3.org/2000/svg">
<g clip-path="url(#clip0_1_2)">
<g opacity="0.3">
<path opacity="0.09" d="M49.3606 70.821C66.7782 66.7678 77.6121 49.3622 73.5589 31.9447C69.5057 14.5271 52.1002 3.69308 34.6826 7.74628C17.265 11.7995 6.43106 29.205 10.4843 46.6226C14.5375 64.0402 31.943 74.8742 49.3606 70.821Z" fill="black"/>
<path opacity="0.18" d="M41.68 71.24C59.563 71.24 74.06 56.743 74.06 38.86C74.06 20.977 59.563 6.48 41.68 6.48C23.797 6.48 9.3 20.977 9.3 38.86C9.3 56.743 23.797 71.24 41.68 71.24Z" fill="black"/>
<path opacity="0.27" d="M47.0878 70.2916C64.687 67.1187 76.3819 50.2795 73.2089 32.6803C70.036 15.081 53.1968 3.38619 35.5975 6.55913C17.9983 9.73208 6.30346 26.5713 9.47641 44.1705C12.6494 61.7698 29.4885 73.4646 47.0878 70.2916Z" fill="black"/>
<path opacity="0.36" fill-rule="evenodd" clip-rule="evenodd" d="M41 70.38C47.4037 70.378 53.6631 68.4773 58.9866 64.9181C64.3102 61.359 68.4589 56.3012 70.9081 50.3844C73.3573 44.4675 73.9971 37.9573 72.7466 31.6769C71.4961 25.3964 68.4114 19.6278 63.8826 15.1004C59.3538 10.5729 53.5842 7.49003 47.3033 6.24145C41.0225 4.99287 34.5125 5.63469 28.5964 8.08575C22.6803 10.5368 17.6238 14.687 14.0663 20.0117C10.5088 25.3363 8.61 31.5963 8.61 38C8.62587 46.5846 12.0438 54.8129 18.1149 60.8821C24.1861 66.9514 32.4154 70.3668 41 70.38Z" fill="black"/>
<path opacity="0.45" fill-rule="evenodd" clip-rule="evenodd" d="M40.65 70C47.0544 70 53.3151 68.1014 58.6408 64.5441C63.9664 60.9868 68.1179 55.9305 70.5706 50.0143C73.0233 44.0982 73.6671 37.5877 72.4205 31.3057C71.174 25.0238 68.0931 19.2524 63.5673 14.721C59.0415 10.1895 53.2739 7.10154 46.9935 5.84725C40.7131 4.59296 34.2018 5.22869 28.2826 7.67408C22.3634 10.1195 17.302 14.2647 13.7381 19.586C10.1743 24.9072 8.26791 31.1656 8.26 37.57C8.26264 46.1632 11.6747 54.4043 17.7473 60.4844C23.8199 66.5645 32.0568 69.9868 40.65 70Z" fill="black"/>
<path opacity="0.55" fill-rule="evenodd" clip-rule="evenodd" d="M40.3 69.53C46.7066 69.532 52.9698 67.634 58.2976 64.0762C63.6255 60.5183 67.7785 55.4604 70.2316 49.542C72.6846 43.6237 73.3275 37.1109 72.0789 30.8272C70.8302 24.5435 67.7461 18.7712 63.2167 14.2403C58.6873 9.70952 52.916 6.62368 46.6327 5.3731C40.3493 4.12251 33.8363 4.76336 27.9172 7.21458C21.9981 9.66581 16.9389 13.8173 13.3794 19.144C9.8199 24.4708 7.92 30.7334 7.92 37.14C7.93585 45.7238 11.3521 53.9516 17.4208 60.0221C23.4895 66.0927 31.7162 69.5115 40.3 69.53Z" fill="black"/>
<path opacity="0.64" fill-rule="evenodd" clip-rule="evenodd" d="M40 69.1C46.4049 69.0941 52.6642 67.1894 57.9867 63.6267C63.3093 60.0641 67.4561 55.0034 69.9031 49.0844C72.35 43.1653 72.9871 36.6537 71.734 30.3727C70.4808 24.0916 67.3936 18.3231 62.8626 13.7962C58.3316 9.26941 52.5602 6.18754 46.278 4.9402C39.9957 3.69285 33.4847 4.33603 27.568 6.78843C21.6512 9.24083 16.5944 13.3924 13.0366 18.7182C9.47889 24.0441 7.58 30.3051 7.58 36.71C7.59588 45.3007 11.0176 53.5345 17.095 59.6063C23.1723 65.678 31.4093 69.0921 40 69.1Z" fill="black"/>
<path opacity="0.73" fill-rule="evenodd" clip-rule="evenodd" d="M39.62 68.67C46.0261 68.67 52.2884 66.7704 57.6149 63.2113C62.9414 59.6522 67.0929 54.5936 69.5445 48.6751C71.996 42.7566 72.6374 36.2441 71.3876 29.961C70.1379 23.678 67.053 17.9066 62.5232 13.3768C57.9934 8.84699 52.222 5.76214 45.939 4.51236C39.6559 3.26259 33.1434 3.90402 27.2249 6.35554C21.3064 8.80706 16.2478 12.9586 12.6887 18.2851C9.12964 23.6116 7.23 29.8739 7.23 36.28C7.24323 44.8663 10.66 53.0971 16.7314 59.1686C22.8029 65.24 31.0337 68.6568 39.62 68.67Z" fill="black"/>
<path opacity="0.82" fill-rule="evenodd" clip-rule="evenodd" d="M39.27 68.24C45.6766 68.242 51.9398 66.344 57.2676 62.7862C62.5955 59.2283 66.7485 54.1704 69.2016 48.2521C71.6546 42.3337 72.2975 35.8209 71.0489 29.5372C69.8002 23.2535 66.7161 17.4812 62.1867 12.9504C57.6573 8.41953 51.886 5.33369 45.6027 4.0831C39.3193 2.83252 32.8063 3.47336 26.8872 5.92459C20.9681 8.37582 15.9089 12.5273 12.3494 17.854C8.78989 23.1808 6.89 29.4434 6.89 35.85C6.90585 44.4338 10.3221 52.6616 16.3908 58.7322C22.4595 64.8027 30.6862 68.2215 39.27 68.24Z" fill="black"/>
<path opacity="0.91" fill-rule="evenodd" clip-rule="evenodd" d="M38.93 67.81C45.3361 67.81 51.5984 65.9104 56.9249 62.3513C62.2514 58.7922 66.4029 53.7336 68.8545 47.8151C71.306 41.8966 71.9474 35.3841 70.6976 29.101C69.4479 22.818 66.363 17.0466 61.8332 12.5168C57.3034 7.98699 51.532 4.90214 45.249 3.65236C38.9659 2.40259 32.4534 3.04402 26.5349 5.49554C20.6164 7.94706 15.5578 12.0986 11.9987 17.4251C8.43964 22.7516 6.54 29.0139 6.54 35.42C6.55586 44.0055 9.97346 52.2348 16.0443 58.3057C22.1152 64.3765 30.3445 67.7941 38.93 67.81Z" fill="black"/>
<path fill-rule="evenodd" clip-rule="evenodd" d="M38.59 67.38C44.9966 67.38 51.2592 65.4801 56.586 61.9206C61.9127 58.3611 66.0642 53.3019 68.5154 47.3828C70.9666 41.4637 71.6075 34.9507 70.3569 28.6674C69.1063 22.384 66.0205 16.6127 61.4897 12.0833C56.9588 7.55386 51.1866 4.4698 44.9028 3.22115C38.6191 1.97251 32.1063 2.61536 26.188 5.06842C20.2696 7.52147 15.2117 11.6745 11.6538 17.0024C8.09598 22.3302 6.19802 28.5934 6.2 35C6.2185 43.5838 9.63727 51.8105 15.7079 57.8792C21.7784 63.9479 30.0062 67.3642 38.59 67.38Z" fill="black"/>
</g>
<path fill-rule="evenodd" clip-rule="evenodd" d="M38.59 67.38C44.9966 67.38 51.2592 65.4801 56.586 61.9206C61.9127 58.3611 66.0642 53.3019 68.5154 47.3828C70.9666 41.4637 71.6075 34.9507 70.3569 28.6674C69.1063 22.384 66.0205 16.6127 61.4897 12.0833C56.9588 7.55386 51.1865 4.4698 44.9028 3.22115C38.6191 1.97251 32.1063 2.61536 26.188 5.06842C20.2696 7.52147 15.2117 11.6745 11.6538 17.0024C8.09598 22.3302 6.19802 28.5934 6.2 35C6.2185 43.5838 9.63727 51.8105 15.7079 57.8792C21.7784 63.9479 30.0062 67.3642 38.59 67.38Z" fill="#111111"/>
<g opacity="0.3">
<path opacity="0.09" fill-rule="evenodd" clip-rule="evenodd" d="M54.43 30.54C49.24 26.68 29.55 13.38 21.11 7.7C11.56 1.28 2.58 4 2.58 15.6V63C2.58 74.65 11.58 77.32 21.11 70.9C29.55 65.21 49.24 51.9 54.43 48.06C57.95 45.44 59.68 42.37 59.61 39.31C59.54 36.25 58 33.16 54.43 30.54Z" fill="black"/>
<path opacity="0.18" fill-rule="evenodd" clip-rule="evenodd" d="M54.17 30.11C49 26.25 29.29 13 20.85 7.27001C11.3 0.850009 2.32 3.52001 2.32 15.17V62.55C2.32 74.2 11.32 76.87 20.85 70.45C29.29 64.76 48.99 51.45 54.17 47.61C57.69 44.99 59.42 41.92 59.36 38.86C59.3 35.8 57.69 32.73 54.17 30.11Z" fill="black"/>
<path opacity="0.27" fill-rule="evenodd" clip-rule="evenodd" d="M53.92 29.68C48.73 25.82 29 12.52 20.59 6.84C11.05 0.420001 2.06 3.09 2.06 14.74V62.12C2.06 73.77 11.06 76.44 20.59 70.02C29 64.33 48.73 51 53.92 47.18C57.44 44.56 59.16 41.49 59.1 38.43C59.04 35.37 57.44 32.3 53.92 29.68Z" fill="black"/>
<path opacity="0.36" fill-rule="evenodd" clip-rule="evenodd" d="M53.66 29.25C48.47 25.39 28.77 12.09 20.33 6.41C10.79 1.19209e-06 1.8 2.66 1.8 14.31V61.69C1.8 73.34 10.8 76.01 20.33 69.59C28.77 63.91 48.47 50.59 53.66 46.75C57.18 44.13 58.91 41.06 58.84 38C58.77 34.94 57.18 31.87 53.66 29.25Z" fill="black"/>
<path opacity="0.45" fill-rule="evenodd" clip-rule="evenodd" d="M53.4 28.82C48.21 25 28.52 11.66 20.07 6C10.53 -0.440002 1.55 2.23 1.55 13.88V61.26C1.55 72.91 10.55 75.58 20.07 69.16C28.52 63.48 48.21 50.16 53.4 46.32C56.92 43.7 58.65 40.63 58.58 37.57C58.51 34.51 56.92 31.44 53.4 28.82Z" fill="black"/>
<path opacity="0.55" fill-rule="evenodd" clip-rule="evenodd" d="M53.14 28.39C48 24.53 28.26 11.24 19.82 5.55001C10.27 -0.869992 1.29 1.80001 1.29 13.45V60.83C1.29 72.48 10.29 75.15 19.82 68.73C28.26 63.05 47.96 49.73 53.14 45.89C56.66 43.27 58.39 40.2 58.33 37.14C58.27 34.08 56.66 31 53.14 28.39Z" fill="black"/>
<path opacity="0.64" fill-rule="evenodd" clip-rule="evenodd" d="M52.89 28C47.7 24.1 28 10.81 19.56 5.12C10 -1.3 1 1.37 1 13V60.4C1 72.05 10 74.72 19.53 68.3C27.97 62.62 47.67 49.3 52.86 45.46C56.38 42.84 58.1 39.77 58.04 36.71C57.98 33.65 56.41 30.58 52.89 28Z" fill="black"/>
<path opacity="0.73" fill-rule="evenodd" clip-rule="evenodd" d="M52.63 27.53C47.44 23.67 27.74 10.38 19.3 4.7C9.76 -1.73 0.77 0.939998 0.77 12.59V60C0.77 71.65 9.77 74.32 19.3 67.9C27.74 62.22 47.44 48.9 52.63 45.06C56.15 42.44 57.88 39.37 57.81 36.31C57.74 33.25 56.15 30.15 52.63 27.53Z" fill="black"/>
<path opacity="0.82" fill-rule="evenodd" clip-rule="evenodd" d="M52.37 27.1C47.18 23.24 27.49 10 19 4.27C9.5 -2.16 0.52 0.510004 0.52 12.16V59.54C0.52 71.19 9.52 73.86 19.04 67.44C27.49 61.76 47.18 48.44 52.37 44.6C55.89 41.98 57.62 38.91 57.55 35.85C57.48 32.79 55.89 29.73 52.37 27.1Z" fill="black"/>
<path opacity="0.91" fill-rule="evenodd" clip-rule="evenodd" d="M52.11 26.67C46.92 22.81 27.23 9.52 18.79 3.84C9.24 -2.59 0.259998 0.0799961 0.259998 11.73V59.11C0.259998 70.76 9.26 73.43 18.79 67.01C27.23 61.33 46.92 48.01 52.11 44.17C55.63 41.55 57.36 38.48 57.29 35.42C57.22 32.36 55.63 29.3 52.11 26.67Z" fill="black"/>
<path fill-rule="evenodd" clip-rule="evenodd" d="M51.86 26.25C46.67 22.38 27 9.09 18.53 3.41C9 -3 0 -0.339998 0 11.3V58.68C0 70.33 9 73 18.53 66.58C27 60.9 46.67 47.6 51.86 43.74C55.38 41.12 57.1 38.05 57 35C56.9 31.95 55.38 28.87 51.86 26.25Z" fill="black"/>
</g>
<path fill-rule="evenodd" clip-rule="evenodd" d="M51.86 26.25C46.67 22.38 27 9.09 18.53 3.41C9 -3 0 -0.339998 0 11.3V58.68C0 70.33 9 73 18.53 66.58C27 60.9 46.67 47.6 51.86 43.74C55.38 41.12 57.1 38.05 57 35C56.9 31.95 55.38 28.87 51.86 26.25Z" fill="url(#paint0_linear_1_2)"/>
</g>
<defs>
<linearGradient id="paint0_linear_1_2" x1="28.52" y1="-7.9" x2="28.52" y2="196.2" gradientUnits="userSpaceOnUse">
<stop stop-color="white"/>
<stop offset="0.29" stop-color="#F0F0F0"/>
<stop offset="0.85" stop-color="#CAC9C9"/>
<stop offset="1" stop-color="#BEBDBD"/>
</linearGradient>
<clipPath id="clip0_1_2">
<rect width="74.75" height="74.71" fill="white"/>
</clipPath>
</defs>
</svg>
